<?xml version="1.0" encoding="UTF-8" standalone="no"?>
<!-- Created with Inkscape (http://www.inkscape.org/) -->

<svg
   width="256"
   height="256"
   viewBox="0 0 256 256"
   version="1.1"
   id="svg5"
   inkscape:version="1.2.2 (732a01da63, 2022-12-09)"
   sodipodi:docname="ship_base.svg"
   xmlns:inkscape="http://www.inkscape.org/namespaces/inkscape"
   xmlns:sodipodi="http://sodipodi.sourceforge.net/DTD/sodipodi-0.dtd"
   xmlns="http://www.w3.org/2000/svg"
   xmlns:svg="http://www.w3.org/2000/svg">
  <sodipodi:namedview
     id="namedview7"
     pagecolor="#ffffff"
     bordercolor="#000000"
     borderopacity="0.25"
     inkscape:showpageshadow="2"
     inkscape:pageopacity="0.0"
     inkscape:pagecheckerboard="0"
     inkscape:deskcolor="#d1d1d1"
     inkscape:document-units="px"
     showgrid="true"
     inkscape:zoom="2"
     inkscape:cx="70"
     inkscape:cy="106.5"
     inkscape:window-width="1920"
     inkscape:window-height="1009"
     inkscape:window-x="-8"
     inkscape:window-y="-8"
     inkscape:window-maximized="1"
     inkscape:current-layer="layer1">
    <inkscape:grid
       type="xygrid"
       id="grid132"
       spacingx="1"
       spacingy="1"
       empspacing="16" />
  </sodipodi:namedview>
  <defs
     id="defs2">
    <mask
       maskUnits="userSpaceOnUse"
       id="mask6274">
      <path
         style="fill:#ffffff;stroke:none;stroke-width:1;stroke-linejoin:round;stroke-dasharray:none;paint-order:stroke fill markers;stop-color:#000000"
         d="m 125,29 c -9,13 -29,52.141795 -29,91 0,32 16,64 16,64 8,2 24,2 32,0 0,0 16,-32 16,-64 0,-38.816262 -20,-78 -29,-91 -1.60997,-2.325511 -4.39003,-2.325511 -6,0 z"
         id="path6276"
         sodipodi:nodetypes="ssccsss" />
    </mask>
    <mask
       maskUnits="userSpaceOnUse"
       id="mask7062">
      <path
         style="fill:#ffffff;stroke:none;stroke-width:1;stroke-linejoin:round;stroke-dasharray:none;paint-order:stroke fill markers;stop-color:#000000"
         d="m 144,184 c -8,16 -11,32 -12,48 -2,1 -6,1 -8,0 -1,-16 -4,-32 -12,-48 8,2 24,2 32,0 z"
         id="path7064"
         sodipodi:nodetypes="ccccc" />
    </mask>
    <mask
       maskUnits="userSpaceOnUse"
       id="mask8548">
      <path
         id="path8550"
         style="fill:#ffffff;stroke:none;stroke-width:1;stroke-linejoin:round;stroke-dasharray:none;paint-order:stroke fill markers;stop-color:#000000"
         d="m 128,27.255859 c -1.09751,0 -2.19502,0.581387 -3,1.744141 -4.424,6.390218 -11.50077,19.115291 -17.55859,35 h 41.11132 C 142.49622,48.117243 135.42255,35.388127 131,29 c -0.80498,-1.162754 -1.90249,-1.744141 -3,-1.744141 z" />
    </mask>
    <mask
       maskUnits="userSpaceOnUse"
       id="mask10847">
      <path
         id="path10849"
         style="fill:#ffffff;stroke:#000000;stroke-width:1;stroke-linejoin:round;stroke-dasharray:none;paint-order:stroke fill markers;stop-color:#000000"
         d="m 107.44141,64 c -1.9238,5.044542 -3.72491,10.414978 -5.33988,16 h 6.01566 c 1.59931,-5.585022 3.40042,-10.955458 5.32422,-16 z"
         sodipodi:nodetypes="ccccc" />
    </mask>
  </defs>
  <g
     inkscape:label="Layer 1"
     inkscape:groupmode="layer"
     id="layer1">
    <rect
       style="fill:#ffff00;stroke:none;stroke-width:1;stroke-linejoin:round;stroke-dasharray:none;paint-order:stroke fill markers;stop-color:#000000"
       id="rect6332"
       width="64"
       height="64"
       x="96"
       y="176"
       mask="url(#mask7062)" />
    <rect
       style="fill:#ff7f2a;stroke:none;stroke-width:1;stroke-linejoin:round;stroke-dasharray:none;paint-order:stroke fill markers;stop-color:#000000"
       id="rect6258"
       width="64"
       height="128"
       x="96"
       y="64"
       mask="url(#mask6274)" />
    <rect
       style="fill:#00ff00;stroke:none;stroke-width:1;stroke-linejoin:round;stroke-dasharray:none;paint-order:stroke fill markers;stop-color:#000000"
       id="rect10784"
       width="16"
       height="16"
       x="100"
       y="64"
       mask="url(#mask10847)" />
    <rect
       style="fill:#c83737;stroke:none;stroke-width:1;stroke-linejoin:round;stroke-dasharray:none;paint-order:stroke fill markers;stop-color:#000000"
       id="rect6204"
       width="64"
       height="48"
       x="96"
       y="16"
       mask="url(#mask8548)" />
    <rect
       style="fill:#00ff00;stroke:none;stroke-width:1;stroke-linejoin:round;stroke-dasharray:none;paint-order:stroke fill markers;stop-color:#000000"
       id="rect10853"
       width="16"
       height="16"
       x="100"
       y="64"
       mask="url(#mask10847)"
       transform="matrix(-1,0,0,1,256,0)" />
    <path
       style="fill:none;stroke:#000000;stroke-width:1;stroke-linejoin:round;stroke-dasharray:none;paint-order:stroke fill markers;stop-color:#000000"
       d="m 125,29 c -9,13 -29,52.141795 -29,91 0,32 16,64 16,64 8,16 11,32 12,48 2,1 6,1 8,0 1,-16 4,-32 12,-48 0,0 16,-32 16,-64 0,-38.816262 -20,-78 -29,-91 -1.60997,-2.325511 -4.39003,-2.325511 -6,0 z"
       id="path7798"
       sodipodi:nodetypes="ssccccsss" />
    <path
       style="fill:none;stroke:#000000;stroke-width:1;stroke-linejoin:round;stroke-dasharray:none;paint-order:stroke fill markers;stop-color:#000000"
       d="m 112,184 c 8,2 24,2 32,0"
       id="path7794" />
    <path
       style="fill:none;stroke:#000000;stroke-width:1;stroke-linejoin:round;stroke-dasharray:none;paint-order:stroke fill markers;stop-color:#000000"
       d="m 107.42931,63.999996 41.13549,0"
       id="path5469"
       sodipodi:nodetypes="cc" />
    <path
       id="path5471"
       style="fill:none;stroke:#000000;stroke-width:1;stroke-linejoin:round;stroke-dasharray:none;paint-order:stroke fill markers;stop-color:#000000"
       d="m 113.44141,64 c -1.9238,5.044542 -3.72491,10.414978 -5.32422,16 l -6.03132,0"
       sodipodi:nodetypes="ccc" />
    <path
       id="path6202"
       style="fill:none;stroke:#000000;stroke-width:1;stroke-linejoin:round;stroke-dasharray:none;paint-order:stroke fill markers;stop-color:#000000"
       d="m 142.55859,64 c 1.9238,5.044542 3.72491,10.414978 5.32422,16 l 6.02599,0"
       sodipodi:nodetypes="ccc" />
    <circle
       style="fill:#ffffff;stroke:none;stroke-width:1;stroke-linejoin:round;stroke-dasharray:none;paint-order:stroke fill markers;stop-color:#000000"
       id="circle15215"
       cx="128"
       cy="120"
       r="4" />
    <circle
       style="fill:none;stroke:#000000;stroke-width:1;stroke-linejoin:round;stroke-dasharray:none;paint-order:stroke fill markers;stop-color:#000000"
       id="path10782"
       cx="128"
       cy="120"
       r="4" />
    <path
       id="path10786"
       style="fill:none;stroke:#000000;stroke-width:1;stroke-linejoin:round;stroke-dasharray:none;paint-order:stroke fill markers;stop-color:#000000"
       d="m 107.44141,64 c -1.9238,5.044542 -3.72491,10.414978 -5.32422,16"
       sodipodi:nodetypes="cc" />
    <circle
       style="fill:#ffffff;stroke:none;stroke-width:1;stroke-linejoin:round;stroke-dasharray:none;paint-order:stroke fill markers;stop-color:#000000"
       id="circle17451"
       cx="128"
       cy="80"
       r="3" />
    <circle
       style="fill:none;stroke:#000000;stroke-width:1;stroke-linejoin:round;stroke-dasharray:none;paint-order:stroke fill markers;stop-color:#000000"
       id="circle17449"
       cx="128"
       cy="80"
       r="3" />
    <circle
       style="fill:#ffffff;stroke:none;stroke-width:1;stroke-linejoin:round;stroke-dasharray:none;paint-order:stroke fill markers;stop-color:#000000"
       id="circle17453"
       cx="128"
       cy="160"
       r="3" />
    <circle
       style="fill:none;stroke:#000000;stroke-width:1;stroke-linejoin:round;stroke-dasharray:none;paint-order:stroke fill markers;stop-color:#000000"
       id="circle17455"
       cx="128"
       cy="160"
       r="3" />
  </g>
</svg>
